# xmcd CD database file generated by OrangeCD 6.4
#
# Track frame offsets:
#	150
#	11249
#	20434
#	28321
#	39474
#	47621
#	57935
#	66557
#	77082
#	89040
#	103128
#	118181
#	126893
#	137480
#	150243
#	158304
#	169015
#	177901
#	188736
#	201548
#	212390
#	221357
#
# Disc length: 3096 seconds
#
# Revision: 2
# Processed by: cddbd v1.5.2PL0 Copyright (c) Steve Scherf et al.
# Submitted via: OrangeCD 6.4
#
DISCID=320c1616
DTITLE=Roger Miller - Collection
DYEAR=1900
DGENRE=
TTITLE0=King Of The Road
TTITLE1=Chug-A-Lug
TTITLE2=Dang Me
TTITLE3=Husbands And Wives
TTITLE4=In The Summertime
TTITLE5=Engine Engine #9
TTITLE6=Can't Roller Skate In A Buffalo Herd
TTITLE7=Release Me
TTITLE8=Walkin' In The Sunshine
TTITLE9=My Elusive Dreams
TTITLE10=Me And Bobby McGee
TTITLE11=England Swings
TTITLE12=Kansas City Star
TTITLE13=The Last Word In Lonesome Is Me
TTITLE14=Do-Wacka-Do
TTITLE15=When Two Worlds Collide
TTITLE16=Billy Bayou
TTITLE17=Burning Bridges
TTITLE18=Heartaches By The Number
TTITLE19=Don't We All Have The Right To Be Wrong
TTITLE20=My Uncle Used To Love Me (But She Died)
TTITLE21=Everything's Coming Up Roses
EXTD=
EXTT0=
EXTT1=
EXTT2=
EXTT3=
EXTT4=
EXTT5=
EXTT6=
EXTT7=
EXTT8=
EXTT9=
EXTT10=
EXTT11=
EXTT12=
EXTT13=
EXTT14=
EXTT15=
EXTT16=
EXTT17=
EXTT18=
EXTT19=
EXTT20=
EXTT21=
PLAYORDER=
